<svg width="512" height="512" viewBox="0 0 512 512" fill="none" xmlns="http://www.w3.org/2000/svg" xmlns:xlink="http://www.w3.org/1999/xlink" class=""><rect id="r6a" width="512" height="512" x="0" y="0" rx="128" fill="url(#r6b)" stroke="#FFFFFF" stroke-width="0" stroke-opacity="100%" paint-order="stroke"></rect><rect width="512" height="512" x="0" y="0" fill="url(#r6c)" rx="128" style="mix-blend-mode: overlay;"></rect><clipPath id="clip"><use xlink:href="#r6a"></use></clipPath><defs><linearGradient id="r6b" gradientUnits="userSpaceOnUse" gradientTransform="rotate(45)" style="transform-origin: center center;"><stop stop-color="#F5AF19"></stop><stop offset="1" stop-color="#F12711"></stop></linearGradient><radialGradient id="r6c" cx="0" cy="0" r="1" gradientUnits="userSpaceOnUse" gradientTransform="translate(256) rotate(90) scale(512)"><stop stop-color="white"></stop><stop offset="1" stop-color="white" stop-opacity="0"></stop></radialGradient></defs><svg xmlns="http://www.w3.org/2000/svg" fill="none" viewBox="0 0 16 16" width="352" height="352" x="80" y="80" alignment-baseline="middle" style="color: rgb(255, 255, 255);"><path fill="currentColor" fill-rule="evenodd" d="M8.694 3.446a5.796 5.796 0 0 1 5.277-.5.75.75 0 0 0 .557-1.392 7.296 7.296 0 0 0-6.642.629l-.29.185-.01.007-.011.007-.287.197a5.287 5.287 0 0 1-5.222.44.75.75 0 1 0-.632 1.361 6.787 6.787 0 0 0 6.704-.565l.277-.19.28-.179ZM11.5 8.75l.617-.427a.75.75 0 0 0-1.234 0l.617.427Zm0 0 .617-.427v.001l.002.002.004.007.016.023a13.093 13.093 0 0 1 .265.4c.169.262.395.625.623 1.026.226.398.461.847.641 1.277.17.407.332.888.332 1.321 0 1.485-1.09 2.62-2.5 2.62S9 13.865 9 12.38c0-.433.161-.914.332-1.32.18-.431.415-.88.64-1.278a21.827 21.827 0 0 1 .889-1.426l.016-.023.004-.007.002-.002.617.426Zm-.223 1.773c.075-.132.15-.26.223-.381.073.121.148.249.223.381.211.372.414.762.562 1.115.158.377.215.625.215.742 0 .715-.476 1.12-1 1.12s-1-.405-1-1.12c0-.117.057-.365.215-.742.148-.353.35-.743.562-1.115Zm2.695-3.577a5.796 5.796 0 0 0-5.278.5l-.28.179-.276.19a6.787 6.787 0 0 1-6.704.565.75.75 0 0 1 .632-1.36 5.287 5.287 0 0 0 5.222-.44l.287-.198.01-.007.01-.007.29-.185a7.296 7.296 0 0 1 6.643-.63.75.75 0 0 1-.556 1.393ZM7.337 12.29a.75.75 0 1 0-.674-1.34 5.287 5.287 0 0 1-4.597.07.75.75 0 0 0-.632 1.361 6.788 6.788 0 0 0 5.903-.09Z" clip-rule="evenodd"></path></svg></svg>